<?xml version="1.0" encoding="utf-8"?>
<!-- Generator: Adobe Illustrator 23.1.0, SVG Export Plug-In . SVG Version: 6.00 Build 0)  -->
<svg version="1.1" id="Capa_1" xmlns="http://www.w3.org/2000/svg" xmlns:xlink="http://www.w3.org/1999/xlink" x="0px" y="0px"
	 viewBox="0 0 164 164" style="enable-background:new 0 0 164 164;" xml:space="preserve">
<style type="text/css">
	.st0{fill:#0096CA;}
	.st1{fill:none;stroke:#FFFFFF;stroke-width:6;stroke-miterlimit:10;}
	.st2{fill:none;stroke:#FFFFFF;stroke-width:5;stroke-miterlimit:10;}
</style>
<title>mis-productos</title>
<circle class="st0" cx="82" cy="82" r="82"/>
<path class="st1" d="M58.6,19.1h3.7c6.9,0,12.5,5.6,12.5,12.5v2.1c0,6.9-5.6,12.5-12.5,12.5h-3.7c-6.9,0-12.5-5.6-12.5-12.5v-2.1
	C46.1,24.7,51.7,19.1,58.6,19.1z"/>
<path class="st1" d="M70.8,42.8c0,0,7.2,3,9.8,8.9c1.6,3.7,2.5,7.7,2.6,11.7c0,0,1.3,7.2-7.2,7.2H48.7c0,0-11.7,1.3-11.7-6.5
	s0.7-16.2,12.3-21.4"/>
<path class="st1" d="M111.8,43.3l20.7,12c6.7,3.9,9,12.5,5.1,19.3L105,131.1c-3.9,6.7-12.5,9-19.3,5.1l-20.7-12
	c-6.7-3.9-9-12.5-5.1-19.3l32.7-56.5C96.5,41.7,105.1,39.4,111.8,43.3z"/>
<ellipse transform="matrix(0.5006 -0.8657 0.8657 0.5006 -62.2738 130.3391)" class="st2" cx="81.8" cy="119.1" rx="4.8" ry="4.4"/>
</svg>
