<svg id="Capa_1" data-name="Capa 1" xmlns="http://www.w3.org/2000/svg" viewBox="0 0 108.73 177.36"><defs><style>.cls-1{fill:#fff;}</style></defs><title>nuevo-producto</title><path class="cls-1" d="M101.51,156.2c-5.3,0-9.61,4.58-9.61,10.22s4.31,10.23,9.61,10.23,9.6-4.59,9.6-10.23S106.8,156.2,101.51,156.2Zm0,14.82c-2.2,0-4-2.06-4-4.6s1.79-4.6,4-4.6,4,2.07,4,4.6S103.7,171,101.51,171Z" transform="translate(-35.74 -11.64)"/><path class="cls-1" d="M120,39.45h-9.89A37.83,37.83,0,1,0,58.55,84.19v80.29A24.54,24.54,0,0,0,83.06,189H120a24.55,24.55,0,0,0,24.52-24.52V64A24.55,24.55,0,0,0,120,39.45ZM55,53V44.34H70.23V28.94h8.65v15.4H94.16V53H78.88v15.2H70.23V53Zm83.89,111.49A18.91,18.91,0,0,1,120,183.38H83.06a18.91,18.91,0,0,1-18.89-18.9V86.13a38.38,38.38,0,0,0,9.41,1.18,37.84,37.84,0,0,0,37.83-37.84,37.37,37.37,0,0,0-.26-4.39H120A18.91,18.91,0,0,1,138.84,64Z" transform="translate(-35.74 -11.64)"/></svg>