<svg id="Capa_1" data-name="Capa 1" xmlns="http://www.w3.org/2000/svg" viewBox="0 0 164 164"><defs><style>.cls-1{fill:#9d50a0;}.cls-2{fill:none;stroke:#fff;stroke-miterlimit:10;stroke-width:6.83px;}.cls-3{fill:#fff;}</style></defs><title>roamming</title><circle class="cls-1" cx="82" cy="82" r="82"/><rect class="cls-2" x="30.75" y="30.75" width="102.5" height="99.08" rx="43.98"/><path class="cls-2" d="M108.54,47.54V68s-2.52,14.4,9.52,14.4c6.83,0,14.4,2.28,14.4,9.11V99.2s2.15,13.34-9.84,13.26c-6.84,0-20.91,0-20.91,0s-10.25,0-10.25,10.25v23.92" transform="translate(-18 -18.5)"/><circle class="cls-3" cx="51.25" cy="61.5" r="23.92"/><path class="cls-1" d="M65.57,64.73q0-3.36,3.76-3.36t3.75,3.36a3.28,3.28,0,0,1-.94,2.5,4,4,0,0,1-2.81.89Q65.57,68.12,65.57,64.73Zm7.19,31.8H65.87V71.26h6.89Z" transform="translate(-18 -18.5)"/></svg>