<svg id="Capa_1" data-name="Capa 1" xmlns="http://www.w3.org/2000/svg" viewBox="0 0 164 164"><defs><style>.cls-1{fill:#5bc503;}.cls-2{fill:none;stroke:#fff;stroke-miterlimit:10;stroke-width:6.02px;}</style></defs><title>desvio-llamadas</title><circle class="cls-1" cx="82" cy="82" r="82"/><path class="cls-2" d="M77.24,96.39,83,87.52s7.3-6.26,0-15.64S70.46,60.4,70.46,60.4s-7.3-6.25-16.69,0S43.34,75,43.34,75A34.53,34.53,0,0,0,49.6,99c8.34,11.48,35.46,40.68,48,48s19.82,10.43,29.21,4.17,10.43-11.47,10.43-11.47a15.73,15.73,0,0,0-2.09-14.6,49.4,49.4,0,0,0-13-12s-7.3-4.17-13.55,1.05-7.31,7.3-7.31,7.3Z" transform="translate(-18 -19)"/><path class="cls-2" d="M103.87,53.73A9.39,9.39,0,0,0,106,72.39l1.07-.13L97.55,82.75a9.39,9.39,0,1,0,13.91,12.61l9.29-10.25-.11,1.9a9.39,9.39,0,1,0,18.74,1.09s1.2-21.73-.15-28.8c-.44-2.32-2.53-6.52-6.25-7.08S103.87,53.73,103.87,53.73Z" transform="translate(-18 -19)"/></svg>