<svg id="Capa_1" data-name="Capa 1" xmlns="http://www.w3.org/2000/svg" viewBox="0 0 164 164"><defs><style>.cls-1{fill:#fd9600;}.cls-2{fill:none;stroke:#fff;stroke-miterlimit:10;stroke-width:7px;}</style></defs><title>mis-servicios</title><circle class="cls-1" cx="82" cy="82" r="82"/><path class="cls-2" d="M84.62,81.13S74.31,62.39,95.86,47.4c7.49-5.62,13.11-5.62,13.11-5.62s11.25-.94,6.56,6.56-9.37,12.18-8.43,15.93,4.69,10.3,9.37,11.24,13.12-4.69,15.93-7.5,8.43-3.74,8.43,1.88S135.21,92.37,121.15,98s-18.73,0-18.73,0l-30,30.92s-10.31,11.24-16.87,5.62-12.18-12.18-3.75-22.48S84.62,81.13,84.62,81.13Z"/><rect class="cls-2" x="46.14" y="19.14" width="28.59" height="26.96" rx="12.45"/><path class="cls-2" d="M70.75,42.75s7.22,3,9.82,8.87a32.27,32.27,0,0,1,2.6,11.7s1.3,7.15-7.15,7.15H48.73S37,71.77,37,64s.65-16.24,12.34-21.44"/></svg>