<svg id="Capa_1" data-name="Capa 1" xmlns="http://www.w3.org/2000/svg" viewBox="0 0 152.15 179.24"><defs><style>.cls-1{fill:none;stroke:#fff;stroke-miterlimit:10;stroke-width:3.81px;}.cls-2{fill:#fff;}</style></defs><title>nuevo_servicio</title><path class="cls-1" d="M92.78,105.83s-15.28-27.78,16.67-50c11.11-8.34,19.45-8.34,19.45-8.34s16.66-1.38,9.72,9.73-13.89,18-12.5,23.61S133.06,96.11,140,97.5s19.44-7,23.61-11.11,12.5-5.56,12.5,2.77S167.79,122.5,147,130.83s-27.78,0-27.78,0L74.72,176.67s-15.27,16.67-25,8.34S31.66,167,44.17,151.67,92.78,105.83,92.78,105.83Z" transform="translate(-25.88 -10)"/><path class="cls-2" d="M68.48,10a42.61,42.61,0,1,0,42.61,42.61A42.61,42.61,0,0,0,68.48,10ZM89.26,57.29H73.07V73.4H63.9V57.29H47.71V48.13H63.9V31.81h9.17V48.13H89.26Z" transform="translate(-25.88 -10)"/></svg>